<svg width="120" height="89" viewBox="0 0 120 89" fill="none" xmlns="http://www.w3.org/2000/svg">
<g clip-path="url(#clip0_1_10040)">
<path fill-rule="evenodd" clip-rule="evenodd" d="M2.61936 26.9432H72.3863C73.486 26.9432 74.3929 27.8609 74.3929 28.9739V75.7492C74.3929 76.8622 73.4957 77.78 72.3863 77.78H2.61936C1.51961 77.78 0.612793 76.8622 0.612793 75.7492V28.9739C0.612793 27.8609 1.51961 26.9432 2.61936 26.9432ZM104.549 45.7275H101.829V40.2211H104.549L104.79 45.7275H104.549ZM37.6282 19.5622H34.9078V14.0558H37.6282V19.5622ZM36.1426 11.3026H34.9078V10.0529V8.67628H36.268H40.4741V11.4295H36.268L36.1426 11.3026ZM43.1945 11.4295V8.67628H48.6354V11.4295H43.1945ZM51.3655 11.4295V8.67628H56.8064V11.4295H51.3655ZM59.5269 11.4295V8.67628H64.9678V11.4295H59.5269ZM67.6979 11.4295V8.67628H73.1387V11.4295H67.6979ZM75.8592 11.4295V8.67628H81.3001V11.4295H75.8592ZM83.4224 67.7434H88.188V64.9902H83.4224L83.6636 67.7434H83.4224ZM90.9085 67.7434V64.9902H96.3494V67.7434H91.14H90.9085ZM99.0795 67.7434V64.9902H103.189V65.0195H104.549V66.3668V67.7434H103.189H99.0795ZM104.549 62.2565H101.829V56.7501H104.549L104.79 62.2565H104.549ZM104.549 53.9969H101.829V48.4905H104.549L104.79 53.9969H104.549ZM115.643 24.6781C115.692 24.6781 115.74 24.6781 115.778 24.6879C116.077 24.1607 116.348 23.6042 116.598 23.0184C116.608 23.0086 116.608 22.9988 116.618 22.9891C116.984 22.1006 117.274 21.1829 117.457 20.2261C117.602 19.4841 117.698 18.7323 117.727 17.9513H113.309C113.232 20.2261 112.556 22.4619 111.312 24.6683L115.643 24.6781ZM114.872 26.1035H110.424C109.074 28.0855 107.25 30.0381 104.974 31.9712C105.331 31.9224 105.688 31.8638 106.035 31.7955C106.99 31.6002 107.906 31.3171 108.794 30.9265C109.691 30.536 110.53 30.0771 111.312 29.5499C112.093 29.0227 112.807 28.4272 113.473 27.7535C113.984 27.2361 114.457 26.6893 114.872 26.1035ZM101.173 31.9712C98.8962 30.0381 97.0729 28.0855 95.7223 26.1035H91.2751C91.6995 26.6893 92.1722 27.2361 92.6835 27.7535C93.3492 28.4272 94.063 29.0227 94.8444 29.5499C95.6162 30.0771 96.4555 30.536 97.3623 30.9265C97.3719 30.9363 97.3816 30.9363 97.3912 30.9461C98.2691 31.3171 99.1759 31.61 100.121 31.7955C100.469 31.8638 100.826 31.9224 101.183 31.9712H101.173ZM90.3393 24.6781H94.8155C93.571 22.4716 92.8958 20.2261 92.8186 17.9611H88.4003C88.4389 18.7421 88.5257 19.4939 88.6704 20.2359C88.8633 21.2024 89.1431 22.1299 89.529 23.0281C89.7701 23.6042 90.0403 24.1509 90.3393 24.6781ZM88.4003 16.5259H92.8475C93.0115 14.2999 93.7447 12.0641 95.047 9.80881H90.3393C90.0403 10.336 89.7701 10.8828 89.529 11.4588C89.5193 11.4685 89.5193 11.4783 89.5097 11.4881C89.1431 12.3765 88.8537 13.2943 88.6704 14.251C88.5257 14.993 88.4292 15.7448 88.4003 16.5259ZM91.2558 8.38338H95.9538C97.2948 6.43075 99.0602 4.46835 101.26 2.49619C100.864 2.54501 100.478 2.60359 100.102 2.68169C99.147 2.87696 98.2305 3.16009 97.343 3.55062C96.4458 3.94114 95.6066 4.40001 94.8251 4.92722C94.0437 5.45443 93.3299 6.04999 92.6642 6.72365C92.1529 7.23133 91.6802 7.77807 91.2558 8.38338ZM104.858 2.48643C107.067 4.45859 108.833 6.42099 110.164 8.37362H114.862C114.437 7.78783 113.965 7.24109 113.453 6.72365C112.788 6.04999 112.074 5.45443 111.293 4.92722C110.521 4.40001 109.681 3.94114 108.775 3.55062C108.765 3.54085 108.755 3.54085 108.746 3.53109C107.868 3.16009 106.961 2.86719 106.016 2.68169C105.63 2.60359 105.244 2.54501 104.858 2.48643ZM115.788 9.80881H111.08C112.383 12.0641 113.116 14.2999 113.28 16.5259H117.727C117.688 15.7448 117.602 14.993 117.457 14.251C117.264 13.2845 116.984 12.357 116.598 11.4588C116.357 10.8828 116.087 10.336 115.788 9.80881ZM99.8319 1.2758C100.874 1.06101 101.954 0.953613 103.064 0.953613C104.173 0.953613 105.244 1.06101 106.295 1.2758C107.328 1.48082 108.321 1.79325 109.296 2.21306C109.305 2.21306 109.325 2.22283 109.334 2.23259C110.299 2.6524 111.215 3.16009 112.074 3.73612C112.933 4.31214 113.724 4.97604 114.447 5.70828C115.18 6.44051 115.827 7.24109 116.396 8.11001C116.975 8.97894 117.467 9.90644 117.881 10.8828C118.306 11.8786 118.615 12.9037 118.827 13.9582C119.039 15.0126 119.145 16.106 119.145 17.2288C119.145 18.3516 119.039 19.4353 118.827 20.4995C118.624 21.5441 118.316 22.5497 117.901 23.5358C117.901 23.5456 117.891 23.5651 117.881 23.5749C117.467 24.561 116.965 25.4787 116.396 26.3476C115.827 27.2165 115.171 28.0171 114.447 28.7493C113.724 29.4914 112.933 30.1455 112.074 30.7215C111.215 31.3073 110.299 31.8052 109.334 32.225C108.35 32.6546 107.337 32.967 106.295 33.1818C105.254 33.3966 104.173 33.504 103.064 33.504C101.954 33.504 100.883 33.3966 99.8319 33.1818C98.7997 32.9768 97.8061 32.6644 96.8317 32.2446C96.8221 32.2446 96.8028 32.2348 96.7931 32.225C95.8284 31.8052 94.912 31.2975 94.0534 30.7215C93.1948 30.1455 92.4038 29.4816 91.6802 28.7493C90.9471 28.0171 90.3007 27.2165 89.7315 26.3476C89.1527 25.4787 88.6607 24.5512 88.2459 23.5749C87.8214 22.579 87.5127 21.5539 87.3005 20.4995C87.0883 19.4451 86.9822 18.3516 86.9822 17.2288C86.9822 16.106 87.0883 15.0223 87.3005 13.9582C87.5031 12.9135 87.8118 11.9079 88.2266 10.9218C88.2266 10.912 88.2363 10.8925 88.2459 10.8828C88.6607 9.89668 89.1624 8.97894 89.7315 8.11001C90.3007 7.24109 90.9567 6.44051 91.6802 5.70828C92.4038 4.96628 93.1948 4.31214 94.0534 3.73612C94.912 3.15033 95.8284 2.6524 96.7931 2.23259C97.7675 1.80301 98.7901 1.49059 99.8319 1.2758ZM103.768 3.41393V8.37362H108.437C107.212 6.73341 105.659 5.08343 103.768 3.41393ZM103.768 9.80881V16.5259H111.871C111.688 14.3194 110.878 12.0836 109.431 9.80881H103.768ZM103.768 17.9513V24.6683H109.662C111.061 22.4423 111.804 20.2066 111.891 17.9513H103.768ZM103.768 26.1035V31.1218C105.765 29.4621 107.405 27.7828 108.678 26.1035H103.768ZM102.359 31.1218V26.1035H97.4491C98.7129 27.7828 100.353 29.4621 102.359 31.1218ZM102.359 24.6781V17.9611H94.227C94.3139 20.2163 95.0663 22.4521 96.4555 24.6781H102.359ZM102.359 16.5259V9.80881H96.6967C95.2496 12.0836 94.4393 14.3194 94.256 16.5259H102.359ZM102.359 8.38338V3.41393C100.469 5.08343 98.9155 6.73341 97.6903 8.37362H102.359V8.38338ZM28.4057 80.582H46.5999C46.6482 83.7648 47.9409 86.6156 51.4524 88.8612H23.5533C26.3606 86.8011 28.4154 84.292 28.4057 80.582ZM37.5028 70.936C38.9209 70.936 40.0786 72.1076 40.0786 73.5428C40.0786 74.978 38.9209 76.1495 37.5028 76.1495C36.0847 76.1495 34.9271 74.978 34.9271 73.5428C34.9271 72.1076 36.0751 70.936 37.5028 70.936ZM6.64215 30.7703H68.3539C69.3282 30.7703 70.1289 31.5807 70.1289 32.5668V67.5189C70.1289 68.505 69.3282 69.3153 68.3539 69.3153H6.64215C5.66781 69.3153 4.86711 68.505 4.86711 67.5189V32.5668C4.86711 31.5709 5.66781 30.7703 6.64215 30.7703Z" fill="white"/>
</g>
<defs>
<clipPath id="clip0_1_10040">
<rect width="118.542" height="87.9076" fill="white" transform="translate(0.612793 0.953613)"/>
</clipPath>
</defs>
</svg>
