<svg width="119" height="104" viewBox="0 0 119 104" fill="none" xmlns="http://www.w3.org/2000/svg">
<path fill-rule="evenodd" clip-rule="evenodd" d="M57.6238 19.8967C58.9744 19.8967 60.3057 19.9723 61.6177 20.1237V8.96079C60.9906 8.73375 60.4407 8.37426 59.9777 7.92018C59.1287 7.08769 58.6078 5.95248 58.6078 4.68482C58.6078 3.42663 59.1287 2.28196 59.9777 1.44947C60.8266 0.616985 61.9842 0.10614 63.2769 0.10614C64.56 0.10614 65.7273 0.616985 66.5762 1.44947C67.4251 2.28196 67.9461 3.41717 67.9461 4.68482C67.9461 5.94302 67.4251 7.08769 66.5762 7.92018C66.1228 8.3648 65.5536 8.73375 64.9362 8.96079V20.6629C68.0425 21.3251 70.9849 22.4036 73.7053 23.8321V19.5183C73.7053 18.6195 74.4481 17.8911 75.3646 17.8911H86.9796C87.2111 17.3141 87.568 16.7937 88.0118 16.3586C88.8607 15.5261 90.0183 15.0152 91.311 15.0152C92.5941 15.0152 93.7614 15.5261 94.6103 16.3586C95.4592 17.1911 95.9802 18.3263 95.9802 19.5939C95.9802 20.8521 95.4592 21.9968 94.6103 22.8293C93.7614 23.6618 92.6037 24.1726 91.311 24.1726C90.0183 24.1726 88.8511 23.6618 88.0214 22.8293C87.5391 22.3563 87.1628 21.7792 86.9313 21.1359H77.0432V25.8281C83.9504 30.5203 89.0054 37.6438 90.9155 45.9403H111.985V29.2621C111.473 29.0351 111.001 28.7135 110.615 28.3256C109.766 27.4931 109.245 26.3579 109.245 25.0902C109.245 23.8321 109.766 22.6874 110.615 21.8549C111.464 21.0224 112.621 20.5116 113.914 20.5116C115.197 20.5116 116.364 21.0224 117.213 21.8549C118.062 22.6874 118.583 23.8226 118.583 25.0902C118.583 26.3484 118.062 27.4931 117.213 28.3256C116.683 28.8459 116.027 29.2338 115.303 29.4608V47.5769C115.303 48.4756 114.56 49.204 113.644 49.204H91.504C91.6776 50.5663 91.7645 51.9569 91.7645 53.3759C91.7645 55.2679 91.6004 57.1221 91.2917 58.929H109.534C109.766 58.3141 110.132 57.7749 110.595 57.3208C111.444 56.4883 112.602 55.9775 113.895 55.9775C115.178 55.9775 116.345 56.4883 117.194 57.3208C118.043 58.1533 118.564 59.2885 118.564 60.5561C118.564 61.8143 118.043 62.959 117.194 63.7915C116.345 64.624 115.187 65.1348 113.895 65.1348C112.612 65.1348 111.444 64.624 110.595 63.7915C110.142 63.3469 109.766 62.7982 109.534 62.1833H90.5682C88.4266 69.8838 83.5645 76.4775 77.0432 80.9048V82.9387H86.9313C87.1628 82.2954 87.5391 81.7184 88.0214 81.2454C88.8511 80.4129 90.028 79.902 91.311 79.902C92.6037 79.902 93.7614 80.4129 94.6103 81.2454C95.4592 82.0779 95.9802 83.2225 95.9802 84.4807C95.9802 85.7484 95.4592 86.8836 94.6103 87.7161C93.7614 88.5486 92.5941 89.0594 91.311 89.0594C90.0183 89.0594 88.8607 88.5486 88.0118 87.7161C87.5777 87.2904 87.2207 86.7701 86.9796 86.1835H75.3742C74.4578 86.1835 73.715 85.4551 73.715 84.5564V82.9009C70.9945 84.3294 68.0425 85.4078 64.9459 86.07V95.1139C65.5729 95.3409 66.1324 95.7099 66.5858 96.1545C67.4348 96.987 67.9557 98.1316 67.9557 99.3898C67.9557 100.657 67.4348 101.793 66.5858 102.625C65.7369 103.458 64.5696 103.969 63.2866 103.969C61.9939 103.969 60.8362 103.458 59.9873 102.625C59.1384 101.793 58.6174 100.648 58.6174 99.3898C58.6174 98.1222 59.1384 96.987 59.9873 96.1545C60.4504 95.7004 61.0002 95.3409 61.6273 95.1139V86.6187C60.3153 86.7701 58.984 86.8457 57.6335 86.8457C55.6172 86.8457 53.6396 86.6755 51.7199 86.3444V99.1439C51.7199 100.043 50.977 100.771 50.0606 100.771H31.577C31.3454 101.49 30.9499 102.133 30.4193 102.644C29.5704 103.477 28.4031 103.987 27.1201 103.987C25.8274 103.987 24.6697 103.477 23.8208 102.644C22.9719 101.812 22.4509 100.667 22.4509 99.4088C22.4509 98.1411 22.9719 97.0059 23.8208 96.1734C24.6697 95.3409 25.837 94.8301 27.1201 94.8301C28.4128 94.8301 29.5704 95.3409 30.4193 96.1734C30.8149 96.5613 31.1332 97.0153 31.3744 97.5167H48.3917V85.6065C45.2178 84.7361 42.2272 83.4212 39.4971 81.7373C39.1981 82.0022 38.8122 82.163 38.3781 82.163H28.2874C28.0558 82.759 27.6892 83.2887 27.2358 83.7239C26.3869 84.5564 25.2196 85.0672 23.9366 85.0672C22.6535 85.0672 21.4862 84.5564 20.6373 83.7239C19.7884 82.9009 19.2674 81.7562 19.2674 80.4886C19.2674 79.2209 19.7884 78.0857 20.6373 77.2532C21.4862 76.4207 22.6535 75.9099 23.9366 75.9099C25.2196 75.9099 26.3869 76.4207 27.2358 77.2532C27.7085 77.7168 28.0848 78.2844 28.3163 78.9087H35.5612C29.2713 73.6773 24.9399 66.2606 23.7919 57.8411H6.63955V74.5287C7.15084 74.7557 7.62354 75.0774 8.00942 75.4652C8.85835 76.2977 9.37929 77.4329 9.37929 78.7006C9.37929 79.9588 8.85835 81.1035 8.00942 81.936C7.16048 82.7684 6.00285 83.2793 4.71015 83.2793C3.4271 83.2793 2.25982 82.7684 1.41089 81.936C0.561952 81.1129 0.0410156 79.9682 0.0410156 78.7006C0.0410156 77.4424 0.561952 76.2977 1.41089 75.4652C1.94147 74.9449 2.59746 74.5571 3.32099 74.33V56.2234C3.32099 55.3247 4.0638 54.5963 4.98027 54.5963H23.5025C23.4832 54.1895 23.4832 53.7827 23.4832 53.3759C23.4832 50.4338 23.869 47.5864 24.5926 44.8713H9.08023C8.8487 45.4862 8.48212 46.0254 8.01906 46.4795C7.17013 47.312 6.01249 47.8229 4.7198 47.8229C3.43675 47.8229 2.26947 47.312 1.42053 46.4795C0.571599 45.647 0.0506626 44.5118 0.0506626 43.2442C0.0506626 41.986 0.571599 40.8413 1.42053 40.0088C2.26947 39.1763 3.4271 38.6655 4.7198 38.6655C6.00285 38.6655 7.17013 39.1763 8.01906 40.0088C8.47247 40.4534 8.8487 41.0021 9.08023 41.617H25.6441C27.8822 35.7612 31.7506 30.6906 36.6995 26.9255V25.1848H28.3067C28.0751 25.8092 27.6989 26.3768 27.2262 26.8404C26.3773 27.6729 25.21 28.1837 23.9269 28.1837C22.6439 28.1837 21.4766 27.6729 20.6277 26.8404C19.7787 26.0079 19.2578 24.8727 19.2578 23.605C19.2578 22.3374 19.7787 21.1927 20.6277 20.3697C21.4766 19.5372 22.6439 19.0263 23.9269 19.0263C25.21 19.0263 26.3773 19.5372 27.2262 20.3697C27.6796 20.8143 28.0365 21.3441 28.2777 21.9306H38.3684C39.2849 21.9306 40.0277 22.659 40.0277 23.5577V24.6929C42.6131 23.1698 45.4204 21.9684 48.382 21.1454V6.56738H31.3744C31.1429 7.06877 30.8149 7.53231 30.4193 7.91072C29.5704 8.74321 28.4128 9.25405 27.1201 9.25405C25.837 9.25405 24.6697 8.74321 23.8208 7.91072C22.9719 7.07823 22.4509 5.94302 22.4509 4.67537C22.4509 3.41717 22.9719 2.2725 23.8208 1.44001C24.6697 0.607525 25.8274 0.0966797 27.1201 0.0966797C28.4031 0.0966797 29.5704 0.607525 30.4193 1.44001C30.9499 1.96032 31.3454 2.6036 31.577 3.31311H50.0509C50.9674 3.31311 51.7102 4.04154 51.7102 4.94025V20.398C53.63 20.0669 55.6076 19.8967 57.6238 19.8967ZM43.8865 50.0271H46.6166V49.7054V44.3794C46.6166 41.3332 47.89 38.5709 49.9352 36.5653C51.9803 34.5598 54.8069 33.3111 57.9132 33.3111C61.0195 33.3111 63.8365 34.5598 65.8816 36.5653C67.9268 38.5709 69.2002 41.3427 69.2002 44.3794V49.7054V50.0271H71.3707C71.8531 50.0271 72.2486 50.4149 72.2486 50.8879V69.1081C72.2486 69.5811 71.8531 69.9689 71.3707 69.9689H43.8865C43.4042 69.9689 43.0086 69.5811 43.0086 69.1081V50.8879C43.0086 50.4149 43.4042 50.0271 43.8865 50.0271ZM50.9963 50.0271H64.8011V49.7054V44.3226C64.8011 42.459 64.0197 40.7656 62.7753 39.5358C61.5212 38.306 59.7944 37.5492 57.9036 37.5492C56.0031 37.5492 54.2763 38.3155 53.0222 39.5358C51.7681 40.7656 50.9963 42.459 50.9963 44.3226V49.7054V50.0271ZM57.9614 59.998L59.3506 66.3079L55.5304 66.3173L56.6495 59.9223C55.6076 59.5912 54.8455 58.6357 54.8455 57.5005C54.8455 56.1004 56.0031 54.9652 57.4309 54.9652C58.8586 54.9652 60.0163 56.1004 60.0163 57.5005C60.0355 58.7398 59.1384 59.7615 57.9614 59.998Z" fill="#04102A"/>
</svg>
