<svg width="116" height="119" viewBox="0 0 116 119" fill="none" xmlns="http://www.w3.org/2000/svg">
<g clip-path="url(#clip0_1_10034)">
<path fill-rule="evenodd" clip-rule="evenodd" d="M7.47736 38.9771H14.1087V37.4335C14.1087 35.3691 14.5213 33.4011 15.2603 31.6068C16.0376 29.7449 17.1604 28.0567 18.5711 26.6482C19.9723 25.2398 21.6517 24.1014 23.5039 23.32C25.2888 22.5676 27.2466 22.1527 29.3003 22.1527H55.672V22.0177V15.0043C55.2401 14.85 54.8371 14.6474 54.4436 14.4255C53.8966 14.0975 53.388 13.702 52.9465 13.2582C52.2556 12.5636 51.699 11.734 51.3151 10.8079C50.9504 9.92038 50.7489 8.93639 50.7489 7.92345C50.7489 6.90088 50.9504 5.92653 51.3151 5.03901C51.699 4.1129 52.2556 3.27361 52.9465 2.57903C53.6375 1.88445 54.4628 1.32492 55.3841 0.939045C56.267 0.562813 57.2458 0.369873 58.2535 0.369873C59.2612 0.369873 60.24 0.57246 61.1229 0.939045C62.0442 1.32492 62.8791 1.88445 63.5701 2.57903C64.261 3.27361 64.8176 4.10325 65.2015 5.03901C65.5662 5.92653 65.7677 6.91052 65.7677 7.92345C65.7677 8.94603 65.5662 9.92038 65.2015 10.8079C64.8176 11.734 64.261 12.5733 63.5701 13.2582L63.5317 13.2968C63.0902 13.7309 62.6008 14.1168 62.0634 14.4352C61.6699 14.6667 61.2573 14.8693 60.835 15.014V22.0273V22.1624H87.2067C89.2604 22.1624 91.2182 22.5772 93.0032 23.3297C94.8649 24.1111 96.5347 25.2398 97.9359 26.6579C99.337 28.0663 100.469 29.7546 101.247 31.6164C101.995 33.4204 102.398 35.3787 102.398 37.4432V38.9867H108.79C109.673 38.9867 110.536 39.1604 111.314 39.4884C112.129 39.826 112.849 40.318 113.454 40.9354L113.492 40.974C114.087 41.5817 114.567 42.2956 114.893 43.0963C115.22 43.8874 115.392 44.7363 115.392 45.6335V63.3646C115.392 64.2521 115.22 65.1204 114.893 65.9018C114.557 66.7121 114.068 67.4453 113.454 68.0531C112.264 69.2493 110.604 70.0017 108.78 70.0017H102.379C102.35 71.9794 101.938 73.8798 101.218 75.6163C100.441 77.4878 99.3178 79.1664 97.9071 80.5748C96.506 81.9833 94.8265 83.1216 92.9744 83.903C91.1798 84.6555 89.2317 85.0607 87.178 85.0607H77.0247V110.664H93.032C93.1183 110.529 93.2047 110.384 93.3007 110.249C93.4926 109.969 93.7037 109.718 93.934 109.477C94.4331 108.976 95.0377 108.561 95.719 108.281C96.3716 108.011 97.0818 107.866 97.8207 107.866C98.55 107.866 99.2794 108.011 99.9224 108.281C100.604 108.561 101.199 108.976 101.707 109.477C102.206 109.979 102.619 110.587 102.897 111.271C103.166 111.927 103.31 112.641 103.31 113.384C103.31 114.127 103.156 114.831 102.897 115.497C102.619 116.182 102.206 116.79 101.707 117.291C101.208 117.793 100.604 118.208 99.9224 118.487C99.2698 118.758 98.5596 118.902 97.8207 118.902C97.1009 118.902 96.41 118.767 95.7574 118.497L95.719 118.487C95.0377 118.208 94.4427 117.793 93.934 117.291C93.6269 116.982 93.3486 116.616 93.1183 116.24C92.9936 116.027 92.8688 115.796 92.7824 115.564H74.5775C73.8961 115.564 73.2915 115.285 72.8405 114.841C72.3798 114.387 72.1111 113.77 72.1111 113.085V85.0607H60.2016V108.435C60.384 108.532 60.5663 108.628 60.739 108.744C61.0653 108.947 61.3724 109.207 61.6411 109.468C62.1498 109.979 62.5528 110.577 62.8311 111.262C63.0998 111.918 63.2438 112.632 63.2438 113.375C63.2438 114.098 63.1094 114.793 62.8407 115.449L62.8311 115.487C62.5528 116.172 62.1402 116.77 61.6411 117.282C61.1421 117.783 60.5375 118.198 59.8562 118.478C59.2036 118.748 58.4934 118.893 57.7545 118.893C57.0155 118.893 56.3054 118.738 55.6528 118.478C54.9714 118.198 54.3668 117.783 53.8678 117.282C53.3688 116.78 52.9561 116.172 52.6778 115.487C52.4187 114.831 52.2652 114.117 52.2652 113.375C52.2652 112.651 52.3995 111.956 52.6682 111.3L52.6778 111.262C52.9561 110.577 53.3688 109.979 53.8678 109.468C54.1269 109.197 54.4244 108.966 54.7411 108.763L54.7795 108.734C54.9522 108.638 55.1346 108.541 55.3169 108.445V85.0607H39.4248V97.9587C39.4248 98.6436 39.1465 99.2514 38.705 99.6951C38.254 100.149 37.6494 100.419 36.968 100.419H25.7015C25.6151 100.592 25.5192 100.747 25.4136 100.92C25.2217 101.21 25.0009 101.489 24.7418 101.74L24.6938 101.779C24.1948 102.281 23.5902 102.695 22.9089 102.975C22.2563 103.245 21.5461 103.39 20.8072 103.39C20.0874 103.39 19.3965 103.245 18.7439 102.985L18.7055 102.975C18.0241 102.695 17.4291 102.281 16.9205 101.779C16.4215 101.277 16.0088 100.669 15.7305 99.9845C15.4618 99.3285 15.3179 98.6147 15.3179 97.8718C15.3179 97.1387 15.4714 96.4152 15.7305 95.7495C16.0088 95.0646 16.4215 94.4568 16.9205 93.9552C17.4387 93.4632 18.0625 93.0484 18.7439 92.7686C19.3965 92.4985 20.1066 92.3538 20.8456 92.3538C21.5941 92.3538 22.3043 92.5081 22.9472 92.7686C23.5998 93.0484 24.1948 93.4439 24.6842 93.9455L24.7226 93.9745C25.0009 94.2542 25.26 94.5726 25.4712 94.9102C25.5767 95.0935 25.6919 95.2865 25.7879 95.4987H34.5305V85.0607H29.3099C27.2562 85.0607 25.2984 84.6458 23.5134 83.903C21.6517 83.1216 19.9819 81.9929 18.5807 80.5748C17.17 79.1664 16.0376 77.4781 15.2603 75.6163C14.5405 73.8798 14.1375 71.9794 14.1087 70.0017H7.47736C6.59446 70.0017 5.73076 69.8281 4.95343 69.5001C4.13771 69.1625 3.41796 68.6705 2.81336 68.0531L2.77498 68.0145C2.17998 67.4067 1.70015 66.6928 1.37386 65.8921C1.03797 65.1107 0.865234 64.2425 0.865234 63.355V45.6238C0.865234 44.7363 1.03797 43.8681 1.37386 43.0867C1.70974 42.2763 2.19918 41.5432 2.81336 40.9354C3.41796 40.3276 4.14731 39.826 4.95343 39.4884C5.73076 39.1604 6.58487 38.9771 7.47736 38.9771ZM44.6838 67.5032C44.5494 67.397 44.4439 67.2909 44.3383 67.1559C44.0312 66.7796 43.868 66.3455 43.8585 65.9114C43.8489 65.4677 43.9928 65.0335 44.2807 64.6477C44.3863 64.5126 44.4918 64.3968 44.6358 64.2811C45.1252 63.8759 45.7682 63.6637 46.4016 63.654C47.035 63.6444 47.6683 63.8277 48.177 64.2136C49.914 65.5545 51.6222 66.5288 53.3208 67.1752C55.0002 67.8119 56.6604 68.1109 58.3015 68.0916C59.9521 68.0723 61.6219 67.7251 63.3302 67.0787C65.0576 66.4227 66.785 65.4387 68.5508 64.175C69.069 63.7987 69.712 63.6347 70.3454 63.6637C70.9787 63.6926 71.6121 63.9145 72.0919 64.339C72.2167 64.4547 72.3223 64.5705 72.4278 64.7152C72.7061 65.1107 72.8405 65.5545 72.8117 65.9982C72.7829 66.442 72.6102 66.8665 72.2935 67.2331C72.1783 67.3585 72.0536 67.4742 71.9 67.5803C69.6928 69.1817 67.4759 70.3973 65.2207 71.2365C62.9655 72.0662 60.6815 72.5099 58.3687 72.5389C56.0463 72.5678 53.7527 72.1723 51.4686 71.3427C49.2038 70.5227 46.9486 69.2493 44.7318 67.5418L44.6838 67.5032ZM38.8778 38.842C39.4344 38.842 40.0006 38.8999 40.5284 39.006C41.0658 39.1218 41.6032 39.2761 42.1119 39.4884C42.6301 39.7006 43.1291 39.9707 43.5801 40.2794C44.0312 40.5785 44.4439 40.9161 44.8181 41.2923L44.8757 41.3406C45.2692 41.7361 45.6242 42.1606 45.9313 42.6333L45.9505 42.6622C46.248 43.1156 46.5071 43.598 46.7183 44.1189C46.9294 44.6302 47.0925 45.1704 47.1981 45.7107C47.3037 46.2509 47.3708 46.8104 47.3708 47.3699C47.3708 47.9295 47.3133 48.4986 47.1981 49.0292C47.0925 49.5694 46.9294 50.1 46.7183 50.6306C46.5071 51.1515 46.2384 51.6532 45.9313 52.1066C45.0005 53.5151 43.6665 54.6052 42.1119 55.2419C41.6032 55.4541 41.0658 55.6181 40.5188 55.7339C39.9814 55.84 39.4248 55.8882 38.8682 55.8882C38.3116 55.8882 37.7454 55.8303 37.2175 55.7339C36.6801 55.6181 36.1427 55.4637 35.6245 55.2419C35.1063 55.0296 34.6072 54.7595 34.1466 54.4508C33.6668 54.1325 33.2445 53.7755 32.8606 53.3896C32.4672 52.9941 32.1121 52.5697 31.805 52.097L31.7858 52.068C31.4883 51.6146 31.2292 51.1323 31.0181 50.6113C30.8069 50.1 30.6438 49.5598 30.5286 49.0196C30.4231 48.4793 30.3751 47.9198 30.3751 47.3603C30.3751 46.8008 30.4327 46.2316 30.5286 45.701C30.6438 45.1608 30.7973 44.6205 31.0181 44.1093C31.2292 43.5883 31.4979 43.0867 31.805 42.6333C32.1217 42.1509 32.4768 41.7265 32.8606 41.3406C33.2541 40.945 33.6764 40.5881 34.1466 40.2794L34.1754 40.2601C34.6264 39.9611 35.1063 39.7006 35.6245 39.4884C36.1331 39.2761 36.6705 39.1121 37.2079 39.006C37.755 38.8999 38.3116 38.842 38.8778 38.842ZM77.6388 38.842C78.1954 38.842 78.7617 38.8999 79.2895 39.006C79.8269 39.1218 80.3643 39.2761 80.8729 39.4884C81.3912 39.7006 81.8902 39.9707 82.3412 40.2794C82.7827 40.5785 83.1857 40.9065 83.56 41.2827C83.5792 41.302 83.608 41.3213 83.6272 41.3406C84.0206 41.7361 84.3757 42.1606 84.6828 42.6333L84.702 42.6622C84.9995 43.1156 85.2586 43.598 85.4697 44.1189C85.6809 44.6302 85.844 45.1704 85.9592 45.7107C86.0647 46.2509 86.1127 46.8104 86.1127 47.3699C86.1127 47.9295 86.0551 48.4986 85.9592 49.0292C85.844 49.5694 85.6905 50.1097 85.4697 50.6306C85.2586 51.1515 84.9899 51.6532 84.6828 52.1066C84.3661 52.5889 84.011 53.0134 83.6272 53.3993C83.2337 53.7948 82.8115 54.1518 82.3412 54.4605L82.3124 54.4798C81.8518 54.7788 81.3816 55.0393 80.8633 55.2515C80.3547 55.4637 79.8173 55.6277 79.2703 55.7435C78.7329 55.8496 78.1763 55.8979 77.6197 55.8979C77.063 55.8979 76.4968 55.84 75.969 55.7435C75.4316 55.6277 74.8942 55.4734 74.376 55.2515C73.8481 55.0296 73.3491 54.7595 72.9077 54.4605L72.8597 54.4219C72.4086 54.1132 71.996 53.7755 71.6217 53.3993C71.2282 53.0038 70.8732 52.5793 70.5661 52.1066L70.5469 52.0777C70.2494 51.6242 69.9903 51.1419 69.7791 50.621C69.568 50.1097 69.4049 49.5694 69.2897 49.0292C69.1842 48.489 69.1266 47.9295 69.1266 47.3699C69.1266 46.8104 69.1842 46.2412 69.2897 45.7107C69.4049 45.1704 69.5584 44.6302 69.7791 44.1189C69.9903 43.598 70.259 43.0963 70.5661 42.6429C70.8828 42.1606 71.2378 41.7361 71.6217 41.3502C72.0056 40.9643 72.4374 40.6074 72.9077 40.2891C73.3683 39.9804 73.8577 39.7199 74.376 39.4884C74.8846 39.2761 75.422 39.1121 75.9594 39.006C76.5256 38.8999 77.0822 38.842 77.6388 38.842ZM17.8226 40.8582V69.7895C17.8226 71.3427 18.1297 72.8283 18.6863 74.1885C19.2717 75.597 20.1258 76.8704 21.1814 77.9412C22.2467 79.012 23.5134 79.8706 24.9146 80.4494C26.2581 81.0089 27.736 81.3176 29.2907 81.3176H87.2163C88.7614 81.3176 90.2393 81.0089 91.5924 80.4494C92.9936 79.8609 94.2603 79.0024 95.3256 77.9412C96.3908 76.8704 97.2449 75.597 97.8207 74.1885C98.3773 72.8379 98.6844 71.3523 98.6844 69.7895V37.4335C98.6844 35.8804 98.3773 34.3851 97.8207 33.0345C97.2353 31.6261 96.3812 30.3527 95.3256 29.2819C94.2603 28.211 92.9936 27.3525 91.5924 26.7736C90.2489 26.2141 88.771 25.9054 87.2163 25.9054H29.3003C27.7552 25.9054 26.2773 26.2141 24.9242 26.7736C23.523 27.3621 22.2563 28.2207 21.191 29.2819C20.1258 30.3527 19.2717 31.6261 18.6959 33.0345C18.1393 34.3851 17.8322 35.8707 17.8322 37.4335L17.8226 40.8582ZM14.0991 42.7201H7.47736C7.0839 42.7201 6.70962 42.7973 6.37374 42.9323C6.01866 43.0867 5.70197 43.2989 5.43326 43.569L5.39488 43.598C5.14536 43.8584 4.93424 44.1671 4.79988 44.5048C4.65593 44.8424 4.58875 45.2187 4.58875 45.6142V63.3453C4.58875 63.7408 4.66553 64.1171 4.79988 64.4547C4.95343 64.8117 5.16456 65.13 5.43326 65.4001C5.95149 65.9211 6.67124 66.2491 7.46776 66.2491H14.0991V42.7201ZM108.809 42.7201H102.418V66.2491H108.809C109.202 66.2491 109.577 66.1719 109.913 66.0368C110.268 65.8825 110.584 65.6702 110.853 65.4001C111.122 65.13 111.342 64.8117 111.486 64.4547C111.63 64.1171 111.698 63.7408 111.698 63.3453V45.6238C111.698 45.2283 111.621 44.8521 111.486 44.5144C111.333 44.1575 111.122 43.8391 110.853 43.569C110.584 43.2989 110.268 43.077 109.913 42.9323C109.577 42.8069 109.202 42.7201 108.809 42.7201Z" fill="#04102A"/>
</g>
<defs>
<clipPath id="clip0_1_10034">
<rect width="114.546" height="118.542" fill="white" transform="translate(0.865234 0.369873)"/>
</clipPath>
</defs>
</svg>
