<svg width="1919" height="636" viewBox="0 0 1919 636" fill="none" xmlns="http://www.w3.org/2000/svg">
<path d="M732.014 489.306L732.029 488.307L732.014 489.306ZM1503.85 259.789L1503.89 260.788L1503.85 259.789ZM1.08075 5.8583C1.30918 6.36113 1.90199 6.58358 2.40482 6.35515C2.90765 6.12672 3.13009 5.53391 2.90166 5.03108L1.08075 5.8583ZM7.21947 14.2824C6.98098 13.7843 6.38383 13.5738 5.88569 13.8123C5.38755 14.0508 5.17705 14.6479 5.41554 15.1461L7.21947 14.2824ZM9.7879 24.0754C10.035 24.5694 10.6357 24.7694 11.1297 24.5223C11.6236 24.2752 11.8236 23.6745 11.5765 23.1806L9.7879 24.0754ZM16.1697 32.1756C15.9146 31.6858 15.3107 31.4955 14.8208 31.7506C14.331 32.0057 14.1407 32.6095 14.3958 33.0994L16.1697 32.1756ZM19.1325 42.0293C19.3949 42.5152 20.0016 42.6964 20.4875 42.434C20.9735 42.1716 21.1547 41.5649 20.8923 41.079L19.1325 42.0293ZM25.7152 49.861C25.446 49.3788 24.8368 49.2061 24.3546 49.4753C23.8723 49.7445 23.6997 50.3537 23.9689 50.8359L25.7152 49.861ZM28.9864 59.6814C29.2621 60.16 29.8735 60.3244 30.352 60.0487C30.8306 59.773 30.995 59.1615 30.7193 58.683L28.9864 59.6814ZM35.7586 67.3014C35.4768 66.8264 34.8633 66.6698 34.3883 66.9516C33.9133 67.2334 33.7567 67.8469 34.0385 68.3219L35.7586 67.3014ZM39.2836 77.0378C39.5713 77.5093 40.1867 77.6582 40.6581 77.3705C41.1296 77.0828 41.2785 76.4674 40.9908 75.996L39.2836 77.0378ZM46.2456 84.4913C45.9523 84.0233 45.3352 83.8817 44.8672 84.175C44.3992 84.4684 44.2577 85.0855 44.551 85.5535L46.2456 84.4913ZM49.9892 94.1163C50.2881 94.5807 50.9068 94.715 51.3713 94.4162C51.8357 94.1174 51.97 93.4986 51.6712 93.0341L49.9892 94.1163ZM57.1446 101.435C56.8405 100.974 56.2202 100.847 55.7592 101.151C55.2982 101.455 55.171 102.075 55.4751 102.536L57.1446 101.435ZM61.0839 110.934C61.3932 111.392 62.0149 111.512 62.4724 111.202C62.9299 110.893 63.0501 110.271 62.7408 109.814L61.0839 110.934ZM68.4363 118.138C68.1219 117.684 67.4989 117.571 67.0449 117.885C66.5908 118.199 66.4776 118.822 66.792 119.276L68.4363 118.138ZM72.5563 127.504C72.8757 127.955 73.4999 128.061 73.9505 127.742C74.401 127.422 74.5074 126.798 74.188 126.348L72.5563 127.504ZM80.1083 134.604C79.784 134.157 79.1587 134.057 78.7116 134.381C78.2646 134.706 78.1651 135.331 78.4894 135.778L80.1083 134.604ZM84.3995 143.834C84.7286 144.278 85.3549 144.37 85.7984 144.041C86.242 143.712 86.3348 143.086 86.0057 142.642L84.3995 143.834ZM92.0845 150.744C91.7507 150.304 91.1234 150.218 90.6834 150.552C90.2435 150.886 90.1574 151.513 90.4913 151.953L92.0845 150.744ZM96.6083 159.926C96.9468 160.362 97.575 160.442 98.0114 160.103C98.4477 159.765 98.5271 159.137 98.1886 158.7L96.6083 159.926ZM104.395 166.613C104.052 166.181 103.423 166.108 102.99 166.451C102.557 166.794 102.484 167.423 102.828 167.856L104.395 166.613ZM109.179 175.779C109.526 176.208 110.156 176.274 110.585 175.926C111.014 175.578 111.08 174.948 110.732 174.519L109.179 175.779ZM117.064 182.247C116.711 181.822 116.081 181.763 115.656 182.115C115.23 182.467 115.171 183.098 115.523 183.523L117.064 182.247ZM122.027 191.293C122.384 191.714 123.015 191.767 123.437 191.41C123.858 191.053 123.911 190.422 123.554 190.001L122.027 191.293ZM130.088 197.64C129.727 197.222 129.096 197.176 128.678 197.537C128.26 197.899 128.214 198.53 128.576 198.948L130.088 197.64ZM135.195 206.523C135.561 206.936 136.193 206.976 136.607 206.61C137.021 206.244 137.06 205.612 136.694 205.198L135.195 206.523ZM143.451 212.765C143.081 212.355 142.449 212.323 142.039 212.693C141.629 213.063 141.597 213.695 141.967 214.105L143.451 212.765ZM148.718 221.506C149.093 221.912 149.726 221.937 150.132 221.563C150.538 221.188 150.563 220.556 150.189 220.15L148.718 221.506ZM157.054 227.515C156.676 227.113 156.043 227.094 155.641 227.473C155.239 227.852 155.22 228.485 155.599 228.887L157.054 227.515ZM162.593 236.23C162.977 236.628 163.61 236.64 164.007 236.257C164.405 235.874 164.417 235.241 164.034 234.843L162.593 236.23ZM171.01 242.01C170.623 241.616 169.99 241.611 169.596 241.999C169.203 242.386 169.197 243.019 169.585 243.413L171.01 242.01ZM176.714 250.58C177.105 250.969 177.738 250.967 178.128 250.576C178.517 250.184 178.516 249.551 178.124 249.162L176.714 250.58ZM185.316 256.236C184.92 255.851 184.287 255.86 183.902 256.255C183.517 256.651 183.526 257.284 183.922 257.67L185.316 256.236ZM191.157 264.632C191.557 265.013 192.19 264.997 192.571 264.597C192.952 264.197 192.936 263.564 192.536 263.184L191.157 264.632ZM199.888 270.104C199.484 269.727 198.851 269.75 198.475 270.154C198.098 270.558 198.121 271.191 198.525 271.567L199.888 270.104ZM205.95 278.402C206.359 278.774 206.991 278.744 207.363 278.336C207.735 277.928 207.705 277.295 207.297 276.923L205.95 278.402ZM214.751 283.634C214.339 283.267 213.707 283.303 213.34 283.716C212.972 284.128 213.009 284.76 213.422 285.128L214.751 283.634ZM221.02 291.814C221.437 292.177 222.069 292.133 222.431 291.716C222.794 291.3 222.75 290.668 222.333 290.305L221.02 291.814ZM229.961 296.866C229.54 296.508 228.909 296.559 228.551 296.98C228.194 297.401 228.245 298.032 228.665 298.39L229.961 296.866ZM236.365 304.861C236.789 305.214 237.42 305.156 237.773 304.731C238.126 304.306 238.067 303.676 237.643 303.323L236.365 304.861ZM245.447 309.731C245.018 309.383 244.388 309.448 244.04 309.877C243.692 310.306 243.758 310.936 244.186 311.284L245.447 309.731ZM252.053 317.592C252.486 317.935 253.115 317.863 253.458 317.43C253.801 316.997 253.728 316.368 253.295 316.025L252.053 317.592ZM261.196 322.212C260.759 321.874 260.131 321.954 259.793 322.391C259.455 322.828 259.535 323.456 259.972 323.794L261.196 322.212ZM268.01 329.938C268.451 330.271 269.078 330.183 269.411 329.743C269.743 329.302 269.656 328.675 269.215 328.342L268.01 329.938ZM277.284 334.36C276.839 334.033 276.213 334.128 275.886 334.572C275.558 335.017 275.653 335.643 276.098 335.971L277.284 334.36ZM284.229 341.887C284.678 342.209 285.302 342.107 285.625 341.658C285.947 341.21 285.845 340.585 285.396 340.263L284.229 341.887ZM293.623 346.1C293.171 345.783 292.547 345.893 292.23 346.345C291.913 346.798 292.023 347.421 292.476 347.738L293.623 346.1ZM300.784 353.484C301.24 353.795 301.863 353.678 302.174 353.222C302.485 352.766 302.368 352.144 301.912 351.832L300.784 353.484ZM310.227 357.435C309.767 357.129 309.146 357.254 308.84 357.714C308.534 358.174 308.659 358.795 309.119 359.1L310.227 357.435ZM317.566 364.644C318.029 364.944 318.648 364.812 318.949 364.348C319.249 363.885 319.116 363.266 318.653 362.965L317.566 364.644ZM327.16 368.4C326.693 368.106 326.075 368.246 325.781 368.713C325.486 369.181 325.626 369.798 326.094 370.092L327.16 368.4ZM334.622 375.394C335.093 375.683 335.709 375.535 335.998 375.065C336.286 374.594 336.139 373.978 335.668 373.689L334.622 375.394ZM344.284 378.899C343.81 378.616 343.196 378.771 342.913 379.246C342.63 379.72 342.785 380.334 343.26 380.617L344.284 378.899ZM352.005 385.756C352.483 386.033 353.095 385.87 353.372 385.392C353.649 384.914 353.486 384.302 353.008 384.026L352.005 385.756ZM361.698 388.987C361.216 388.716 360.607 388.887 360.336 389.368C360.065 389.849 360.236 390.459 360.717 390.73L361.698 388.987ZM369.534 395.618C370.019 395.882 370.627 395.704 370.891 395.219C371.156 394.735 370.978 394.127 370.493 393.862L369.534 395.618ZM379.394 398.65C378.906 398.391 378.301 398.577 378.042 399.065C377.784 399.553 377.97 400.159 378.458 400.417L379.394 398.65ZM387.378 405.069C387.869 405.321 388.472 405.127 388.724 404.636C388.976 404.145 388.782 403.542 388.291 403.29L387.378 405.069ZM397.253 407.819C396.759 407.573 396.159 407.774 395.913 408.269C395.667 408.763 395.868 409.363 396.363 409.609L397.253 407.819ZM405.451 414.056C405.948 414.296 406.546 414.086 406.785 413.589C407.025 413.091 406.816 412.493 406.318 412.254L405.451 414.056ZM415.421 416.563C414.92 416.33 414.325 416.547 414.092 417.047C413.859 417.548 414.076 418.143 414.577 418.376L415.421 416.563ZM423.715 422.558C424.219 422.784 424.811 422.559 425.037 422.056C425.264 421.552 425.039 420.96 424.535 420.734L423.715 422.558ZM433.75 424.806C433.243 424.586 432.654 424.818 432.434 425.325C432.214 425.832 432.447 426.421 432.953 426.64L433.75 424.806ZM442.283 430.619C442.793 430.832 443.379 430.592 443.592 430.082C443.805 429.573 443.565 428.987 443.056 428.774L442.283 430.619ZM452.307 432.576C451.795 432.369 451.212 432.617 451.006 433.129C450.799 433.642 451.047 434.224 451.559 434.431L452.307 432.576ZM460.931 438.14C461.446 438.34 462.025 438.085 462.225 437.57C462.425 437.055 462.17 436.476 461.655 436.276L460.931 438.14ZM471.099 439.87C470.582 439.677 470.006 439.94 469.813 440.458C469.62 440.975 469.883 441.551 470.4 441.744L471.099 439.87ZM479.86 445.202C480.38 445.388 480.953 445.118 481.139 444.598C481.325 444.078 481.055 443.505 480.535 443.319L479.86 445.202ZM489.998 446.638C489.476 446.459 488.907 446.737 488.727 447.259C488.548 447.781 488.826 448.35 489.349 448.53L489.998 446.638ZM498.931 451.748C499.455 451.921 500.02 451.635 500.193 451.11C500.365 450.586 500.079 450.02 499.555 449.848L498.931 451.748ZM509.183 452.941C508.656 452.775 508.095 453.068 507.93 453.595C507.764 454.122 508.057 454.684 508.584 454.849L509.183 452.941ZM518.168 457.788C518.697 457.946 519.255 457.646 519.413 457.117C519.572 456.588 519.271 456.03 518.742 455.872L518.168 457.788ZM528.391 458.692C527.86 458.541 527.307 458.849 527.155 459.38C527.004 459.911 527.312 460.464 527.843 460.615L528.391 458.692ZM537.608 463.33C538.141 463.474 538.69 463.159 538.835 462.626C538.979 462.093 538.664 461.543 538.131 461.399L537.608 463.33ZM547.85 463.962C547.315 463.825 546.771 464.147 546.633 464.682C546.496 465.217 546.818 465.762 547.353 465.9L547.85 463.962ZM557.098 468.333C557.635 468.463 558.176 468.134 558.306 467.597C558.436 467.06 558.107 466.519 557.57 466.389L557.098 468.333ZM567.377 468.701C566.839 468.578 566.302 468.914 566.179 469.453C566.056 469.991 566.393 470.527 566.931 470.651L567.377 468.701ZM576.851 472.851C577.391 472.967 577.923 472.623 578.039 472.083C578.155 471.543 577.811 471.012 577.271 470.896L576.851 472.851ZM587.055 472.932C586.514 472.823 585.986 473.173 585.877 473.715C585.768 474.256 586.119 474.783 586.66 474.892L587.055 472.932ZM596.537 476.813C597.08 476.915 597.602 476.558 597.704 476.015C597.806 475.472 597.449 474.95 596.906 474.848L596.537 476.813ZM606.841 476.646C606.297 476.551 605.779 476.915 605.684 477.459C605.589 478.003 605.953 478.521 606.497 478.616L606.841 476.646ZM616.495 480.291C617.04 480.379 617.553 480.008 617.641 479.463C617.729 478.917 617.358 478.404 616.812 478.317L616.495 480.291ZM626.683 479.839C626.137 479.759 625.628 480.136 625.548 480.683C625.467 481.229 625.844 481.737 626.391 481.818L626.683 479.839ZM636.367 483.226C636.914 483.3 637.418 482.916 637.491 482.369C637.565 481.821 637.181 481.318 636.634 481.244L636.367 483.226ZM646.665 482.529C646.117 482.462 645.618 482.853 645.552 483.401C645.485 483.949 645.876 484.448 646.424 484.514L646.665 482.529ZM656.462 485.669C657.011 485.729 657.504 485.332 657.564 484.783C657.624 484.234 657.227 483.741 656.678 483.681L656.462 485.669ZM666.62 484.698C666.07 484.645 665.582 485.048 665.529 485.597C665.476 486.147 665.879 486.636 666.429 486.688L666.62 484.698ZM676.473 487.588C677.023 487.634 677.507 487.225 677.552 486.674C677.598 486.124 677.189 485.641 676.639 485.595L676.473 487.588ZM686.735 486.371C686.184 486.332 685.706 486.747 685.667 487.298C685.628 487.849 686.043 488.327 686.594 488.366L686.735 486.371ZM696.658 489.014C697.209 489.046 697.682 488.625 697.714 488.073C697.746 487.522 697.326 487.049 696.774 487.017L696.658 489.014ZM706.756 487.536C706.204 487.511 705.736 487.937 705.711 488.489C705.686 489.041 706.112 489.509 706.664 489.534L706.756 487.536ZM716.743 489.934C717.295 489.953 717.758 489.52 717.776 488.968C717.795 488.416 717.362 487.954 716.81 487.935L716.743 489.934ZM726.938 488.213C726.386 488.202 725.929 488.64 725.917 489.192C725.905 489.744 726.343 490.201 726.896 490.213L726.938 488.213ZM737.154 490.375C737.707 490.381 738.159 489.938 738.165 489.386C738.172 488.834 737.729 488.381 737.177 488.375L737.154 490.375ZM747.334 488.448C746.782 488.447 746.332 488.893 746.331 489.445C746.329 489.998 746.775 490.447 747.328 490.448L747.334 488.448ZM757.318 490.439C757.87 490.436 758.316 489.986 758.313 489.434C758.31 488.882 757.86 488.436 757.308 488.439L757.318 490.439ZM767.102 488.348C766.55 488.355 766.108 488.809 766.116 489.361C766.123 489.914 766.577 490.355 767.129 490.348L767.102 488.348ZM777.152 490.167C777.705 490.155 778.142 489.697 778.13 489.145C778.117 488.593 777.66 488.155 777.107 488.168L777.152 490.167ZM787.235 487.892C786.683 487.909 786.249 488.371 786.267 488.923C786.285 489.475 786.747 489.908 787.299 489.891L787.235 487.892ZM797.247 489.525C797.799 489.502 798.228 489.036 798.205 488.484C798.182 487.932 797.716 487.503 797.164 487.526L797.247 489.525ZM806.9 487.073C806.348 487.101 805.924 487.571 805.953 488.123C805.981 488.674 806.451 489.099 807.003 489.07L806.9 487.073ZM817.173 488.491C817.724 488.457 818.143 487.982 818.109 487.431C818.074 486.88 817.599 486.461 817.048 486.495L817.173 488.491ZM827.071 485.816C826.52 485.856 826.106 486.335 826.146 486.886C826.187 487.437 826.666 487.851 827.217 487.81L827.071 485.816ZM837.051 487.033C837.601 486.986 838.01 486.503 837.963 485.952C837.917 485.402 837.433 484.994 836.882 485.04L837.051 487.033ZM846.791 484.142C846.241 484.195 845.839 484.684 845.892 485.233C845.945 485.783 846.434 486.186 846.984 486.133L846.791 484.142ZM857.07 485.094C857.619 485.034 858.015 484.54 857.955 483.991C857.895 483.442 857.401 483.046 856.852 483.106L857.07 485.094ZM866.687 481.967C866.139 482.034 865.749 482.533 865.816 483.081C865.883 483.629 866.382 484.019 866.93 483.952L866.687 481.967ZM876.733 482.687C877.281 482.613 877.664 482.109 877.59 481.562C877.515 481.014 877.011 480.631 876.464 480.705L876.733 482.687ZM886.5 479.27C885.954 479.352 885.578 479.861 885.66 480.408C885.742 480.954 886.251 481.33 886.797 481.248L886.5 479.27ZM896.622 479.699C897.167 479.609 897.536 479.095 897.446 478.55C897.356 478.005 896.841 477.636 896.296 477.726L896.622 479.699ZM906.02 476.047C905.477 476.145 905.115 476.665 905.213 477.208C905.312 477.752 905.832 478.113 906.375 478.015L906.02 476.047ZM916.347 476.134C916.889 476.028 917.241 475.502 917.135 474.96C917.028 474.418 916.502 474.065 915.96 474.172L916.347 476.134ZM925.652 472.184C925.112 472.299 924.767 472.831 924.883 473.371C924.998 473.911 925.529 474.255 926.069 474.14L925.652 472.184ZM935.812 471.974C936.35 471.85 936.686 471.313 936.562 470.775C936.437 470.237 935.9 469.901 935.362 470.025L935.812 471.974ZM945.135 467.678C944.599 467.811 944.273 468.354 944.407 468.89C944.541 469.426 945.084 469.752 945.619 469.618L945.135 467.678ZM955.173 467.146C955.707 467.003 956.023 466.454 955.88 465.921C955.737 465.387 955.189 465.071 954.655 465.214L955.173 467.146ZM964.354 462.517C963.823 462.67 963.517 463.224 963.67 463.755C963.823 464.286 964.377 464.592 964.908 464.439L964.354 462.517ZM974.484 461.585C975.012 461.422 975.308 460.862 975.145 460.334C974.983 459.807 974.423 459.511 973.895 459.673L974.484 461.585ZM983.332 456.667C982.808 456.839 982.522 457.404 982.695 457.929C982.868 458.454 983.433 458.739 983.957 458.566L983.332 456.667ZM993.505 455.322C994.026 455.139 994.3 454.569 994.117 454.048C993.935 453.526 993.364 453.252 992.843 453.435L993.505 455.322ZM1002.1 450.088C1001.58 450.28 1001.32 450.856 1001.51 451.374C1001.71 451.891 1002.28 452.155 1002.8 451.962L1002.1 450.088ZM1012.24 448.341C1012.75 448.139 1013 447.558 1012.8 447.044C1012.6 446.53 1012.02 446.278 1011.5 446.481L1012.24 448.341ZM1020.69 442.751C1020.18 442.964 1019.94 443.549 1020.15 444.059C1020.36 444.569 1020.95 444.809 1021.46 444.597L1020.69 442.751ZM1030.68 440.644C1031.19 440.421 1031.42 439.831 1031.19 439.325C1030.97 438.82 1030.38 438.59 1029.87 438.813L1030.68 440.644ZM1038.95 434.716C1038.45 434.948 1038.23 435.542 1038.46 436.044C1038.69 436.545 1039.29 436.763 1039.79 436.531L1038.95 434.716ZM1048.82 432.253C1049.32 432.012 1049.52 431.413 1049.28 430.916C1049.04 430.42 1048.44 430.212 1047.95 430.453L1048.82 432.253ZM1056.89 426.019C1056.4 426.268 1056.2 426.87 1056.45 427.363C1056.7 427.855 1057.3 428.052 1057.79 427.803L1056.89 426.019ZM1066.65 423.219C1067.14 422.961 1067.33 422.356 1067.07 421.868C1066.81 421.379 1066.21 421.192 1065.72 421.45L1066.65 423.219ZM1074.52 416.718C1074.04 416.983 1073.86 417.591 1074.12 418.075C1074.39 418.56 1075 418.737 1075.48 418.472L1074.52 416.718ZM1084.19 413.619C1084.67 413.347 1084.84 412.737 1084.57 412.256C1084.3 411.776 1083.69 411.607 1083.21 411.879L1084.19 413.619ZM1091.87 406.899C1091.4 407.177 1091.23 407.789 1091.51 408.267C1091.79 408.744 1092.4 408.905 1092.88 408.627L1091.87 406.899ZM1101.47 403.553C1101.94 403.27 1102.1 402.656 1101.81 402.182C1101.53 401.708 1100.92 401.553 1100.44 401.837L1101.47 403.553ZM1108.99 396.668C1108.52 396.955 1108.37 397.571 1108.66 398.042C1108.95 398.514 1109.56 398.662 1110.03 398.374L1108.99 396.668ZM1118.53 393.14C1119 392.849 1119.14 392.232 1118.85 391.763C1118.56 391.294 1117.94 391.15 1117.47 391.441L1118.53 393.14ZM1125.94 386.147C1125.48 386.441 1125.34 387.058 1125.63 387.525C1125.92 387.993 1126.54 388.134 1127.01 387.84L1125.94 386.147ZM1135.45 382.511C1135.91 382.216 1136.05 381.598 1135.76 381.131C1135.46 380.665 1134.84 380.526 1134.38 380.822L1135.45 382.511ZM1142.81 375.47C1142.34 375.766 1142.2 376.384 1142.5 376.851C1142.8 377.317 1143.42 377.454 1143.88 377.158L1142.81 375.47ZM1152.31 371.806C1152.77 371.511 1152.91 370.893 1152.62 370.426C1152.32 369.96 1151.7 369.822 1151.24 370.118L1152.31 371.806ZM1159.67 364.779C1159.21 365.073 1159.07 365.691 1159.36 366.158C1159.66 366.625 1160.27 366.765 1160.74 366.47L1159.67 364.779ZM1169.2 361.166C1169.67 360.874 1169.81 360.257 1169.52 359.789C1169.22 359.32 1168.61 359.177 1168.14 359.469L1169.2 361.166ZM1176.63 354.212C1176.16 354.501 1176.01 355.117 1176.3 355.587C1176.59 356.058 1177.21 356.205 1177.68 355.916L1176.63 354.212ZM1186.2 350.728C1186.67 350.443 1186.83 349.828 1186.54 349.355C1186.26 348.882 1185.64 348.729 1185.17 349.014L1186.2 350.728ZM1193.75 343.905C1193.27 344.185 1193.11 344.798 1193.39 345.274C1193.67 345.75 1194.29 345.909 1194.76 345.629L1193.75 343.905ZM1203.4 340.618C1203.88 340.343 1204.04 339.732 1203.77 339.253C1203.49 338.774 1202.88 338.607 1202.4 338.882L1203.4 340.618ZM1211.1 333.982C1210.62 334.25 1210.44 334.858 1210.71 335.341C1210.98 335.824 1211.59 335.999 1212.07 335.731L1211.1 333.982ZM1220.84 330.949C1221.33 330.689 1221.51 330.083 1221.25 329.596C1220.99 329.109 1220.39 328.926 1219.9 329.186L1220.84 330.949ZM1228.72 324.55C1228.23 324.803 1228.04 325.406 1228.29 325.897C1228.55 326.388 1229.15 326.581 1229.64 326.328L1228.72 324.55ZM1238.58 321.817C1239.08 321.572 1239.28 320.972 1239.04 320.477C1238.79 319.982 1238.19 319.779 1237.7 320.024L1238.58 321.817ZM1246.65 315.697C1246.15 315.933 1245.94 316.529 1246.17 317.029C1246.41 317.528 1247 317.742 1247.5 317.506L1246.65 315.697ZM1256.64 313.291C1257.14 313.064 1257.37 312.472 1257.14 311.969C1256.91 311.465 1256.32 311.241 1255.82 311.467L1256.64 313.291ZM1264.88 307.486C1264.37 307.703 1264.14 308.291 1264.35 308.799C1264.57 309.306 1265.16 309.541 1265.67 309.324L1264.88 307.486ZM1274.93 305.458C1275.44 305.251 1275.69 304.667 1275.48 304.156C1275.27 303.644 1274.69 303.398 1274.18 303.606L1274.93 305.458ZM1283.42 299.952C1282.9 300.15 1282.64 300.729 1282.84 301.245C1283.04 301.76 1283.62 302.017 1284.14 301.819L1283.42 299.952ZM1293.49 298.324C1294.01 298.135 1294.27 297.562 1294.09 297.043C1293.9 296.524 1293.32 296.256 1292.8 296.444L1293.49 298.324ZM1302.26 293.111C1301.74 293.29 1301.46 293.858 1301.64 294.381C1301.82 294.904 1302.39 295.182 1302.91 295.004L1302.26 293.111ZM1312.3 291.887C1312.83 291.718 1313.12 291.155 1312.95 290.629C1312.78 290.104 1312.22 289.814 1311.69 289.983L1312.3 291.887ZM1321.38 286.968C1320.85 287.127 1320.55 287.685 1320.71 288.214C1320.87 288.742 1321.43 289.042 1321.96 288.883L1321.38 286.968ZM1331.39 286.132C1331.92 285.982 1332.23 285.43 1332.08 284.898C1331.93 284.367 1331.38 284.058 1330.84 284.208L1331.39 286.132ZM1340.52 281.568C1339.99 281.709 1339.67 282.256 1339.81 282.79C1339.95 283.324 1340.5 283.643 1341.03 283.502L1340.52 281.568ZM1350.75 281.031C1351.29 280.899 1351.62 280.358 1351.49 279.821C1351.35 279.285 1350.81 278.957 1350.28 279.088L1350.75 281.031ZM1359.89 276.813C1359.35 276.936 1359.02 277.472 1359.14 278.011C1359.26 278.549 1359.8 278.886 1360.34 278.763L1359.89 276.813ZM1370.17 276.604C1370.71 276.49 1371.06 275.96 1370.94 275.419C1370.83 274.879 1370.3 274.533 1369.76 274.647L1370.17 276.604ZM1379.53 272.662C1378.99 272.767 1378.64 273.293 1378.74 273.835C1378.85 274.377 1379.38 274.73 1379.92 274.624L1379.53 272.662ZM1389.63 272.804C1390.17 272.706 1390.54 272.186 1390.44 271.642C1390.34 271.099 1389.82 270.737 1389.28 270.835L1389.63 272.804ZM1399.26 269.115C1398.71 269.205 1398.35 269.719 1398.44 270.264C1398.52 270.809 1399.04 271.178 1399.58 271.088L1399.26 269.115ZM1409.39 269.542C1409.93 269.459 1410.31 268.95 1410.23 268.404C1410.14 267.858 1409.63 267.482 1409.09 267.564L1409.39 269.542ZM1418.89 266.152C1418.34 266.228 1417.96 266.732 1418.03 267.279C1418.11 267.826 1418.61 268.209 1419.16 268.134L1418.89 266.152ZM1429.17 266.826C1429.71 266.758 1430.1 266.259 1430.04 265.711C1429.97 265.163 1429.47 264.774 1428.92 264.842L1429.17 266.826ZM1438.86 263.67C1438.32 263.731 1437.92 264.226 1437.98 264.775C1438.04 265.323 1438.54 265.719 1439.09 265.657L1438.86 263.67ZM1448.86 264.624C1449.41 264.569 1449.81 264.079 1449.76 263.53C1449.7 262.98 1449.21 262.579 1448.66 262.634L1448.86 264.624ZM1458.68 261.693C1458.13 261.741 1457.72 262.227 1457.77 262.777C1457.82 263.327 1458.3 263.734 1458.85 263.685L1458.68 261.693ZM1468.99 262.848C1469.54 262.805 1469.95 262.325 1469.91 261.774C1469.87 261.223 1469.39 260.811 1468.83 260.854L1468.99 262.848ZM1478.58 260.154C1478.03 260.191 1477.61 260.667 1477.65 261.218C1477.68 261.769 1478.16 262.186 1478.71 262.149L1478.58 260.154ZM1488.63 261.538C1489.18 261.507 1489.6 261.035 1489.57 260.483C1489.54 259.932 1489.07 259.51 1488.52 259.541L1488.63 261.538ZM1498.66 259.018C1498.11 259.044 1497.68 259.512 1497.71 260.063C1497.73 260.615 1498.2 261.041 1498.75 261.016L1498.66 259.018ZM1508.84 260.62C1509.39 260.605 1509.82 260.146 1509.81 259.594C1509.79 259.042 1509.34 258.606 1508.78 258.621L1508.84 260.62ZM1518.71 258.514C1518.16 258.511 1517.71 258.957 1517.7 259.509C1517.7 260.062 1518.15 260.511 1518.7 260.514L1518.71 258.514ZM1528.55 260.712C1529.1 260.731 1529.56 260.3 1529.58 259.748C1529.6 259.196 1529.17 258.732 1528.62 258.713L1528.55 260.712ZM1538.54 259.215C1537.98 259.179 1537.51 259.596 1537.47 260.148C1537.44 260.699 1537.85 261.175 1538.4 261.211L1538.54 259.215ZM1548.22 262.007C1548.77 262.06 1549.26 261.657 1549.31 261.107C1549.36 260.557 1548.96 260.069 1548.41 260.016L1548.22 262.007ZM1558.28 261.114C1557.73 261.045 1557.23 261.433 1557.16 261.981C1557.09 262.529 1557.48 263.029 1558.03 263.098L1558.28 261.114ZM1567.78 264.476C1568.33 264.561 1568.84 264.188 1568.93 263.642C1569.01 263.096 1568.64 262.585 1568.09 262.5L1567.78 264.476ZM1577.88 264.173C1577.34 264.073 1576.81 264.431 1576.71 264.974C1576.61 265.517 1576.97 266.039 1577.51 266.14L1577.88 264.173ZM1587.18 268.079C1587.72 268.195 1588.25 267.852 1588.37 267.312C1588.48 266.772 1588.14 266.24 1587.6 266.124L1587.18 268.079ZM1597.27 268.35C1596.73 268.218 1596.19 268.547 1596.06 269.083C1595.93 269.62 1596.26 270.161 1596.79 270.292L1597.27 268.35ZM1606.34 272.769C1606.87 272.915 1607.42 272.602 1607.57 272.069C1607.71 271.537 1607.4 270.986 1606.87 270.84L1606.34 272.769ZM1616.4 273.592C1615.87 273.432 1615.31 273.73 1615.15 274.259C1614.99 274.787 1615.29 275.346 1615.82 275.506L1616.4 273.592ZM1625.22 278.494C1625.74 278.668 1626.31 278.385 1626.48 277.861C1626.66 277.337 1626.37 276.771 1625.85 276.596L1625.22 278.494ZM1635.22 279.847C1634.7 279.659 1634.13 279.928 1633.94 280.448C1633.75 280.967 1634.02 281.54 1634.54 281.728L1635.22 279.847ZM1643.77 285.2C1644.29 285.401 1644.87 285.147 1645.07 284.632C1645.27 284.118 1645.01 283.538 1644.5 283.337L1643.77 285.2ZM1653.69 287.059C1653.18 286.845 1652.6 287.085 1652.38 287.594C1652.17 288.104 1652.41 288.69 1652.92 288.903L1653.69 287.059ZM1661.97 292.831C1662.47 293.057 1663.07 292.832 1663.29 292.328C1663.52 291.824 1663.29 291.233 1662.79 291.007L1661.97 292.831ZM1671.79 295.173C1671.29 294.935 1670.69 295.146 1670.45 295.644C1670.21 296.143 1670.43 296.74 1670.92 296.978L1671.79 295.173ZM1679.78 301.336C1680.27 301.585 1680.87 301.388 1681.12 300.896C1681.37 300.403 1681.17 299.801 1680.68 299.552L1679.78 301.336ZM1689.47 304.136C1688.99 303.875 1688.38 304.058 1688.12 304.545C1687.86 305.031 1688.04 305.638 1688.53 305.899L1689.47 304.136ZM1697.17 310.661C1697.65 310.933 1698.26 310.764 1698.54 310.283C1698.81 309.802 1698.64 309.192 1698.16 308.92L1697.17 310.661ZM1706.73 313.897C1706.26 313.615 1705.64 313.77 1705.36 314.245C1705.08 314.719 1705.23 315.333 1705.71 315.616L1706.73 313.897ZM1714.13 320.759C1714.6 321.052 1715.22 320.91 1715.51 320.442C1715.81 319.974 1715.66 319.357 1715.19 319.064L1714.13 320.759ZM1723.54 324.41C1723.08 324.107 1722.46 324.236 1722.15 324.698C1721.85 325.159 1721.98 325.779 1722.44 326.082L1723.54 324.41ZM1730.64 331.586C1731.1 331.899 1731.72 331.783 1732.03 331.328C1732.34 330.873 1732.23 330.25 1731.77 329.937L1730.64 331.586ZM1739.88 335.63C1739.43 335.308 1738.81 335.411 1738.49 335.86C1738.16 336.308 1738.27 336.933 1738.71 337.255L1739.88 335.63ZM1746.68 343.1C1747.12 343.431 1747.75 343.342 1748.08 342.9C1748.41 342.458 1748.32 341.831 1747.88 341.5L1746.68 343.1ZM1755.74 347.522C1755.31 347.182 1754.68 347.259 1754.34 347.694C1754 348.129 1754.08 348.757 1754.51 349.097L1755.74 347.522ZM1762.23 355.264C1762.66 355.613 1763.29 355.549 1763.64 355.121C1763.99 354.693 1763.92 354.063 1763.5 353.714L1762.23 355.264ZM1771.11 360.049C1770.69 359.691 1770.06 359.743 1769.7 360.164C1769.34 360.585 1769.39 361.216 1769.81 361.573L1771.11 360.049ZM1777.28 368.045C1777.7 368.411 1778.33 368.372 1778.69 367.958C1779.06 367.545 1779.02 366.913 1778.61 366.547L1777.28 368.045ZM1785.96 373.18C1785.55 372.806 1784.92 372.832 1784.55 373.239C1784.17 373.645 1784.2 374.278 1784.61 374.652L1785.96 373.18ZM1791.81 381.414C1792.21 381.796 1792.85 381.782 1793.23 381.383C1793.61 380.984 1793.59 380.351 1793.2 379.969L1791.81 381.414ZM1800.28 386.887C1799.89 386.497 1799.26 386.499 1798.87 386.89C1798.48 387.282 1798.48 387.915 1798.87 388.304L1800.28 386.887ZM1805.81 395.345C1806.19 395.742 1806.82 395.753 1807.22 395.369C1807.62 394.986 1807.63 394.353 1807.24 393.955L1805.81 395.345ZM1814.06 401.147C1813.68 400.743 1813.05 400.719 1812.64 401.095C1812.24 401.471 1812.21 402.104 1812.59 402.508L1814.06 401.147ZM1819.24 409.815C1819.61 410.228 1820.24 410.264 1820.65 409.896C1821.06 409.528 1821.1 408.896 1820.73 408.484L1819.24 409.815ZM1827.25 415.941C1826.89 415.521 1826.26 415.473 1825.84 415.832C1825.42 416.192 1825.38 416.823 1825.74 417.242L1827.25 415.941ZM1832.09 424.808C1832.44 425.234 1833.07 425.295 1833.5 424.945C1833.92 424.594 1833.98 423.963 1833.63 423.537L1832.09 424.808ZM1839.85 431.25C1839.51 430.816 1838.88 430.742 1838.45 431.084C1838.01 431.427 1837.94 432.055 1838.28 432.489L1839.85 431.25ZM1844.32 440.306C1844.66 440.747 1845.28 440.834 1845.72 440.501C1846.16 440.167 1846.25 439.54 1845.92 439.1L1844.32 440.306ZM1851.81 447.06C1851.49 446.613 1850.86 446.513 1850.41 446.837C1849.97 447.161 1849.87 447.786 1850.19 448.233L1851.81 447.06ZM1855.9 456.299C1856.22 456.753 1856.84 456.866 1857.29 456.552C1857.75 456.237 1857.86 455.614 1857.55 455.16L1855.9 456.299ZM1863.09 463.36C1862.79 462.899 1862.17 462.773 1861.71 463.077C1861.25 463.381 1861.12 464.002 1861.42 464.463L1863.09 463.36ZM1866.78 472.774C1867.08 473.242 1867.69 473.382 1868.16 473.088C1868.63 472.794 1868.77 472.177 1868.48 471.709L1866.78 472.774ZM1873.65 480.14C1873.36 479.666 1872.75 479.511 1872.27 479.794C1871.8 480.078 1871.65 480.692 1871.93 481.166L1873.65 480.14ZM1876.91 489.723C1877.18 490.204 1877.79 490.373 1878.27 490.101C1878.75 489.829 1878.92 489.219 1878.65 488.738L1876.91 489.723ZM1883.4 497.389C1883.14 496.902 1882.54 496.718 1882.05 496.978C1881.56 497.238 1881.38 497.844 1881.64 498.331L1883.4 497.389ZM1886.2 507.136C1886.44 507.63 1887.05 507.83 1887.54 507.582C1888.03 507.335 1888.23 506.734 1887.98 506.24L1886.2 507.136ZM1892.29 515.125C1892.06 514.625 1891.47 514.41 1890.97 514.644C1890.46 514.879 1890.25 515.474 1890.48 515.974L1892.29 515.125ZM1894.56 525.001C1894.78 525.507 1895.37 525.739 1895.88 525.519C1896.39 525.299 1896.62 524.709 1896.4 524.203L1894.56 525.001ZM1900.22 533.343C1900.01 532.83 1899.43 532.581 1898.92 532.787C1898.4 532.992 1898.15 533.574 1898.36 534.087L1900.22 533.343ZM1901.88 543.297C1902.07 543.815 1902.65 544.083 1903.17 543.893C1903.69 543.704 1903.95 543.13 1903.76 542.611L1901.88 543.297ZM1907.02 552.008C1906.85 551.483 1906.28 551.197 1905.76 551.369C1905.23 551.541 1904.95 552.106 1905.12 552.631L1907.02 552.008ZM1908.01 561.992C1908.16 562.522 1908.72 562.828 1909.25 562.674C1909.78 562.52 1910.08 561.966 1909.93 561.435L1908.01 561.992ZM1912.53 571.083C1912.4 570.547 1911.85 570.221 1911.32 570.354C1910.78 570.488 1910.45 571.03 1910.59 571.566L1912.53 571.083ZM1912.77 581.157C1912.88 581.698 1913.41 582.047 1913.95 581.935C1914.49 581.824 1914.84 581.295 1914.73 580.754L1912.77 581.157ZM1916.52 590.505C1916.43 589.959 1915.92 589.588 1915.37 589.676C1914.83 589.763 1914.45 590.276 1914.54 590.821L1916.52 590.505ZM1915.87 600.614C1915.94 601.163 1916.43 601.559 1916.98 601.498C1917.53 601.437 1917.92 600.942 1917.86 600.393L1915.87 600.614ZM1918.7 610.281C1918.67 609.73 1918.2 609.309 1917.65 609.341C1917.1 609.373 1916.67 609.846 1916.71 610.398L1918.7 610.281ZM1917 620.2C1917 620.752 1917.45 621.2 1918 621.199C1918.55 621.199 1919 620.751 1919 620.199L1917 620.2ZM1918.69 630.187C1918.73 629.636 1918.31 629.161 1917.76 629.126C1917.21 629.091 1916.73 629.51 1916.7 630.061L1918.69 630.187ZM-0.914782 1.40395C-0.269332 2.86564 0.395837 4.35064 1.08075 5.8583L2.90166 5.03108C2.21961 3.52973 1.55733 2.05117 0.914782 0.596053L-0.914782 1.40395ZM5.41554 15.1461C6.80715 18.0529 8.26454 21.0306 9.7879 24.0754L11.5765 23.1806C10.0582 20.1459 8.60596 17.1786 7.21947 14.2824L5.41554 15.1461ZM14.3958 33.0994C15.9184 36.0233 17.4972 39.0009 19.1325 42.0293L20.8923 41.079C19.2617 38.0593 17.6876 35.0905 16.1697 32.1756L14.3958 33.0994ZM23.9689 50.8359C25.5923 53.7438 27.2647 56.6932 28.9864 59.6814L30.7193 58.683C29.0022 55.7025 27.3342 52.761 25.7152 49.861L23.9689 50.8359ZM34.0385 68.3219C35.7434 71.1956 37.4917 74.1017 39.2836 77.0378L40.9908 75.996C39.2032 73.0669 37.4592 70.168 35.7586 67.3014L34.0385 68.3219ZM44.551 85.5535C46.3246 88.3831 48.1374 91.238 49.9892 94.1163L51.6712 93.0341C49.8236 90.1625 48.0151 87.3142 46.2456 84.4913L44.551 85.5535ZM55.4751 102.536C57.3092 105.316 59.1787 108.116 61.0839 110.934L62.7408 109.814C60.8399 107.002 58.9745 104.209 57.1446 101.435L55.4751 102.536ZM66.792 119.276C68.6808 122.004 70.6022 124.747 72.5563 127.504L74.188 126.348C72.2382 123.597 70.321 120.86 68.4363 118.138L66.792 119.276ZM78.4894 135.778C80.4292 138.452 82.3992 141.138 84.3995 143.834L86.0057 142.642C84.0097 139.952 82.0439 137.272 80.1083 134.604L78.4894 135.778ZM90.4913 151.953C92.5014 154.602 94.5404 157.26 96.6083 159.926L98.1886 158.7C96.1251 156.04 94.0904 153.388 92.0845 150.744L90.4913 151.953ZM102.828 167.856C104.917 170.491 107.034 173.132 109.179 175.779L110.732 174.519C108.592 171.878 106.479 169.243 104.395 166.613L102.828 167.856ZM115.523 183.523C117.665 186.109 119.833 188.699 122.027 191.293L123.554 190.001C121.364 187.413 119.2 184.828 117.064 182.247L115.523 183.523ZM128.576 198.948C130.757 201.471 132.964 203.996 135.195 206.523L136.694 205.198C134.467 202.677 132.265 200.157 130.088 197.64L128.576 198.948ZM141.967 214.105C144.193 216.572 146.444 219.039 148.718 221.506L150.189 220.15C147.919 217.688 145.673 215.227 143.451 212.765L141.967 214.105ZM155.599 228.887C157.907 231.336 160.238 233.784 162.593 236.23L164.034 234.843C161.684 232.402 159.357 229.959 157.054 227.515L155.599 228.887ZM169.585 243.413C171.938 245.805 174.314 248.194 176.714 250.58L178.124 249.162C175.73 246.781 173.359 244.397 171.01 242.01L169.585 243.413ZM183.922 257.67C186.312 259.995 188.723 262.316 191.157 264.632L192.536 263.184C190.108 260.872 187.701 258.556 185.316 256.236L183.922 257.67ZM198.525 271.567C200.979 273.851 203.454 276.13 205.95 278.402L207.297 276.923C204.806 274.656 202.336 272.382 199.888 270.104L198.525 271.567ZM213.422 285.128C215.933 287.363 218.466 289.592 221.02 291.814L222.333 290.305C219.785 288.088 217.258 285.864 214.751 283.634L213.422 285.128ZM228.665 298.39C231.211 300.554 233.778 302.712 236.365 304.861L237.643 303.323C235.062 301.178 232.501 299.026 229.961 296.866L228.665 298.39ZM244.186 311.284C246.788 313.395 249.411 315.498 252.053 317.592L253.295 316.025C250.659 313.936 248.043 311.838 245.447 309.731L244.186 311.284ZM259.972 323.794C262.631 325.852 265.311 327.9 268.01 329.938L269.215 328.342C266.522 326.309 263.849 324.265 261.196 322.212L259.972 323.794ZM276.098 335.971C278.789 337.953 281.499 339.926 284.229 341.887L285.396 340.263C282.673 338.306 279.969 336.338 277.284 334.36L276.098 335.971ZM292.476 347.738C295.226 349.665 297.996 351.58 300.784 353.484L301.912 351.832C299.13 349.933 296.367 348.022 293.623 346.1L292.476 347.738ZM309.119 359.1C311.916 360.961 314.731 362.809 317.566 364.644L318.653 362.965C315.825 361.134 313.017 359.291 310.227 357.435L309.119 359.1ZM326.094 370.092C328.918 371.873 331.761 373.64 334.622 375.394L335.668 373.689C332.814 371.939 329.978 370.176 327.16 368.4L326.094 370.092ZM343.26 380.617C346.157 382.344 349.072 384.057 352.005 385.756L353.008 384.026C350.082 382.331 347.174 380.622 344.284 378.899L343.26 380.617ZM360.717 390.73C363.638 392.373 366.578 394.003 369.534 395.618L370.493 393.862C367.544 392.252 364.612 390.626 361.698 388.987L360.717 390.73ZM378.458 400.417C381.414 401.983 384.387 403.533 387.378 405.069L388.291 403.29C385.308 401.758 382.342 400.211 379.394 398.65L378.458 400.417ZM396.363 409.609C399.375 411.107 402.404 412.59 405.451 414.056L406.318 412.254C403.279 410.791 400.258 409.313 397.253 407.819L396.363 409.609ZM414.577 418.376C417.606 419.786 420.652 421.18 423.715 422.558L424.535 420.734C421.481 419.36 418.442 417.969 415.421 416.563L414.577 418.376ZM432.953 426.64C436.047 427.984 439.157 429.31 442.283 430.619L443.056 428.774C439.937 427.468 436.835 426.146 433.75 424.806L432.953 426.64ZM451.559 434.431C454.667 435.685 457.791 436.921 460.931 438.14L461.655 436.276C458.523 435.06 455.407 433.827 452.307 432.576L451.559 434.431ZM470.4 441.744C473.538 442.914 476.691 444.067 479.86 445.202L480.535 443.319C477.374 442.187 474.229 441.038 471.099 439.87L470.4 441.744ZM489.349 448.53C492.527 449.621 495.721 450.694 498.931 451.748L499.555 449.848C496.354 448.796 493.168 447.726 489.998 446.638L489.349 448.53ZM508.584 454.849C511.764 455.847 514.958 456.827 518.168 457.788L518.742 455.872C515.541 454.913 512.354 453.936 509.183 452.941L508.584 454.849ZM527.843 460.615C531.083 461.539 534.338 462.444 537.608 463.33L538.131 461.399C534.869 460.516 531.623 459.613 528.391 458.692L527.843 460.615ZM547.353 465.9C550.587 466.73 553.835 467.541 557.098 468.333L557.57 466.389C554.316 465.599 551.076 464.79 547.85 463.962L547.353 465.9ZM566.931 470.651C570.223 471.404 573.53 472.137 576.851 472.851L577.271 470.896C573.958 470.184 570.66 469.452 567.377 468.701L566.931 470.651ZM586.66 474.892C589.939 475.552 593.231 476.193 596.537 476.813L596.906 474.848C593.608 474.229 590.325 473.59 587.055 472.932L586.66 474.892ZM606.497 478.616C609.816 479.195 613.148 479.753 616.495 480.291L616.812 478.317C613.475 477.78 610.151 477.223 606.841 476.646L606.497 478.616ZM626.391 481.818C629.703 482.307 633.028 482.777 636.367 483.226L636.634 481.244C633.303 480.796 629.987 480.327 626.683 479.839L626.391 481.818ZM646.424 484.514C649.757 484.919 653.103 485.304 656.462 485.669L656.678 483.681C653.327 483.317 649.99 482.933 646.665 482.529L646.424 484.514ZM666.429 486.688C669.764 487.008 673.112 487.308 676.473 487.588L676.639 485.595C673.286 485.316 669.947 485.017 666.62 484.698L666.429 486.688ZM686.594 488.366C689.936 488.602 693.291 488.818 696.658 489.014L696.774 487.017C693.415 486.822 690.069 486.607 686.735 486.371L686.594 488.366ZM706.664 489.534C710.012 489.687 713.371 489.821 716.743 489.934L716.81 487.935C713.447 487.822 710.095 487.689 706.756 487.536L706.664 489.534ZM726.896 490.213C728.593 490.249 730.294 490.28 731.998 490.306L732.029 488.307C730.329 488.281 728.632 488.25 726.938 488.213L726.896 490.213ZM731.998 490.306C733.725 490.333 735.443 490.355 737.154 490.375L737.177 488.375C735.469 488.356 733.753 488.333 732.029 488.307L731.998 490.306ZM747.328 490.448C750.688 490.459 754.018 490.456 757.318 490.439L757.308 488.439C754.013 488.456 750.689 488.459 747.334 488.448L747.328 490.448ZM767.129 490.348C770.502 490.302 773.843 490.242 777.152 490.167L777.107 488.168C773.804 488.242 770.469 488.302 767.102 488.348L767.129 490.348ZM787.299 489.891C790.648 489.784 793.964 489.661 797.247 489.525L797.164 487.526C793.887 487.663 790.577 487.785 787.235 487.892L787.299 489.891ZM807.003 489.07C810.428 488.893 813.818 488.7 817.173 488.491L817.048 486.495C813.701 486.704 810.318 486.896 806.9 487.073L807.003 489.07ZM827.217 487.81C830.53 487.567 833.808 487.308 837.051 487.033L836.882 485.04C833.646 485.314 830.376 485.573 827.071 485.816L827.217 487.81ZM846.984 486.133C850.384 485.804 853.746 485.457 857.07 485.094L856.852 483.106C853.536 483.468 850.183 483.814 846.791 484.142L846.984 486.133ZM866.93 483.952C870.235 483.548 873.503 483.126 876.733 482.687L876.464 480.705C873.243 481.143 869.984 481.564 866.687 481.967L866.93 483.952ZM886.797 481.248C890.112 480.75 893.386 480.233 896.622 479.699L896.296 477.726C893.07 478.258 889.805 478.773 886.5 479.27L886.797 481.248ZM906.375 478.015C909.741 477.407 913.065 476.78 916.347 476.134L915.96 474.172C912.689 474.816 909.376 475.441 906.02 476.047L906.375 478.015ZM926.069 474.14C929.359 473.437 932.606 472.715 935.812 471.974L935.362 470.025C932.167 470.764 928.93 471.484 925.652 472.184L926.069 474.14ZM945.619 469.618C948.846 468.813 952.03 467.989 955.173 467.146L954.655 465.214C951.523 466.054 948.35 466.875 945.135 467.678L945.619 469.618ZM964.908 464.439C968.143 463.507 971.334 462.556 974.484 461.585L973.895 459.673C970.757 460.641 967.577 461.589 964.354 462.517L964.908 464.439ZM983.957 458.566C987.183 457.505 990.365 456.423 993.505 455.322L992.843 453.435C989.715 454.532 986.546 455.609 983.332 456.667L983.957 458.566ZM1002.8 451.962C1005.99 450.775 1009.13 449.567 1012.24 448.341L1011.5 446.481C1008.41 447.702 1005.28 448.905 1002.1 450.088L1002.8 451.962ZM1021.46 444.597C1024.57 443.297 1027.65 441.979 1030.68 440.644L1029.87 438.813C1026.85 440.143 1023.79 441.457 1020.69 442.751L1021.46 444.597ZM1039.79 436.531C1042.84 435.122 1045.85 433.695 1048.82 432.253L1047.95 430.453C1044.98 431.891 1041.99 433.312 1038.95 434.716L1039.79 436.531ZM1057.79 427.803C1060.78 426.29 1063.73 424.761 1066.65 423.219L1065.72 421.45C1062.81 422.987 1059.87 424.511 1056.89 426.019L1057.79 427.803ZM1075.48 418.472C1078.41 416.867 1081.32 415.249 1084.19 413.619L1083.21 411.879C1080.34 413.504 1077.44 415.118 1074.52 416.718L1075.48 418.472ZM1092.88 408.627C1095.76 406.945 1098.63 405.254 1101.47 403.553L1100.44 401.837C1097.6 403.534 1094.75 405.222 1091.87 406.899L1092.88 408.627ZM1110.03 398.374C1112.88 396.636 1115.71 394.891 1118.53 393.14L1117.47 391.441C1114.66 393.19 1111.83 394.932 1108.99 396.668L1110.03 398.374ZM1127.01 387.84C1129.83 386.067 1132.64 384.29 1135.45 382.511L1134.38 380.822C1131.57 382.6 1128.76 384.375 1125.94 386.147L1127.01 387.84ZM1143.88 377.158C1146.69 375.374 1149.5 373.59 1152.31 371.806L1151.24 370.118C1148.42 371.902 1145.62 373.686 1142.81 375.47L1143.88 377.158ZM1160.74 366.47C1163.55 364.699 1166.37 362.93 1169.2 361.166L1168.14 359.469C1165.31 361.235 1162.49 363.006 1159.67 364.779L1160.74 366.47ZM1177.68 355.916C1180.5 354.18 1183.34 352.45 1186.2 350.728L1185.17 349.014C1182.31 350.74 1179.46 352.473 1176.63 354.212L1177.68 355.916ZM1194.76 345.629C1197.62 343.949 1200.5 342.278 1203.4 340.618L1202.4 338.882C1199.5 340.546 1196.61 342.221 1193.75 343.905L1194.76 345.629ZM1212.07 335.731C1214.97 334.125 1217.89 332.531 1220.84 330.949L1219.9 329.186C1216.94 330.772 1214 332.371 1211.1 333.982L1212.07 335.731ZM1229.64 326.328C1232.59 324.81 1235.57 323.306 1238.58 321.817L1237.7 320.024C1234.67 321.518 1231.68 323.027 1228.72 324.55L1229.64 326.328ZM1247.5 317.506C1250.51 316.085 1253.55 314.679 1256.64 313.291L1255.82 311.467C1252.72 312.861 1249.67 314.271 1246.65 315.697L1247.5 317.506ZM1265.67 309.324C1268.71 308.018 1271.8 306.729 1274.93 305.458L1274.18 303.606C1271.04 304.881 1267.94 306.175 1264.88 307.486L1265.67 309.324ZM1284.14 301.819C1287.21 300.636 1290.33 299.471 1293.49 298.324L1292.8 296.444C1289.63 297.595 1286.51 298.765 1283.42 299.952L1284.14 301.819ZM1302.91 295.004C1306 293.947 1309.13 292.908 1312.3 291.887L1311.69 289.983C1308.51 291.008 1305.36 292.05 1302.26 293.111L1302.91 295.004ZM1321.96 288.883C1325.06 287.948 1328.2 287.031 1331.39 286.132L1330.84 284.208C1327.65 285.109 1324.49 286.03 1321.38 286.968L1321.96 288.883ZM1341.03 283.502C1344.23 282.66 1347.47 281.836 1350.75 281.031L1350.28 279.088C1346.98 279.896 1343.73 280.723 1340.52 281.568L1341.03 283.502ZM1360.34 278.763C1363.57 278.025 1366.85 277.305 1370.17 276.604L1369.76 274.647C1366.43 275.351 1363.14 276.073 1359.89 276.813L1360.34 278.763ZM1379.92 274.624C1383.12 274 1386.35 273.393 1389.63 272.804L1389.28 270.835C1385.99 271.427 1382.74 272.035 1379.53 272.662L1379.92 274.624ZM1399.58 271.088C1402.81 270.556 1406.08 270.04 1409.39 269.542L1409.09 267.564C1405.77 268.064 1402.5 268.581 1399.26 269.115L1399.58 271.088ZM1419.16 268.134C1422.46 267.681 1425.79 267.245 1429.17 266.826L1428.92 264.842C1425.54 265.262 1422.19 265.699 1418.89 266.152L1419.16 268.134ZM1439.09 265.657C1442.31 265.298 1445.57 264.953 1448.86 264.624L1448.66 262.634C1445.36 262.964 1442.1 263.309 1438.86 263.67L1439.09 265.657ZM1458.85 263.685C1462.2 263.39 1465.57 263.111 1468.99 262.848L1468.83 260.854C1465.41 261.117 1462.03 261.397 1458.68 261.693L1458.85 263.685ZM1478.71 262.149C1481.98 261.931 1485.29 261.727 1488.63 261.538L1488.52 259.541C1485.17 259.731 1481.86 259.935 1478.58 260.154L1478.71 262.149ZM1498.75 261.016C1500.46 260.936 1502.17 260.86 1503.89 260.788L1503.8 258.79C1502.08 258.862 1500.37 258.938 1498.66 259.018L1498.75 261.016ZM1503.89 260.788C1505.54 260.719 1507.19 260.663 1508.84 260.62L1508.78 258.621C1507.13 258.664 1505.47 258.72 1503.8 258.79L1503.89 260.788ZM1518.7 260.514C1521.99 260.53 1525.27 260.596 1528.55 260.712L1528.62 258.713C1525.32 258.596 1522.02 258.53 1518.71 258.514L1518.7 260.514ZM1538.4 261.211C1541.68 261.427 1544.96 261.693 1548.22 262.007L1548.41 260.016C1545.13 259.7 1541.84 259.433 1538.54 259.215L1538.4 261.211ZM1558.03 263.098C1561.29 263.51 1564.54 263.97 1567.78 264.476L1568.09 262.5C1564.83 261.991 1561.56 261.528 1558.28 261.114L1558.03 263.098ZM1577.51 266.14C1580.75 266.741 1583.97 267.387 1587.18 268.079L1587.6 266.124C1584.37 265.428 1581.13 264.778 1577.88 264.173L1577.51 266.14ZM1596.79 270.292C1599.99 271.074 1603.17 271.9 1606.34 272.769L1606.87 270.84C1603.68 269.967 1600.48 269.136 1597.27 268.35L1596.79 270.292ZM1615.82 275.506C1618.96 276.461 1622.1 277.457 1625.22 278.494L1625.85 276.596C1622.71 275.554 1619.56 274.552 1616.4 273.592L1615.82 275.506ZM1634.54 281.728C1637.63 282.846 1640.71 284.004 1643.77 285.2L1644.5 283.337C1641.42 282.135 1638.33 280.971 1635.22 279.847L1634.54 281.728ZM1652.92 288.903C1655.95 290.176 1658.97 291.485 1661.97 292.831L1662.79 291.007C1659.77 289.654 1656.74 288.338 1653.69 287.059L1652.92 288.903ZM1670.92 296.978C1673.89 298.396 1676.84 299.848 1679.78 301.336L1680.68 299.552C1677.73 298.058 1674.77 296.598 1671.79 295.173L1670.92 296.978ZM1688.53 305.899C1691.43 307.453 1694.31 309.041 1697.17 310.661L1698.16 308.92C1695.28 307.293 1692.39 305.698 1689.47 304.136L1688.53 305.899ZM1705.71 315.616C1708.54 317.3 1711.34 319.015 1714.13 320.759L1715.19 319.064C1712.39 317.312 1709.57 315.589 1706.73 313.897L1705.71 315.616ZM1722.44 326.082C1725.2 327.889 1727.93 329.724 1730.64 331.586L1731.77 329.937C1729.05 328.067 1726.31 326.224 1723.54 324.41L1722.44 326.082ZM1738.71 337.255C1741.39 339.177 1744.05 341.126 1746.68 343.1L1747.88 341.5C1745.24 339.518 1742.57 337.561 1739.88 335.63L1738.71 337.255ZM1754.51 349.097C1757.11 351.129 1759.68 353.185 1762.23 355.264L1763.5 353.714C1760.94 351.626 1758.35 349.562 1755.74 347.522L1754.51 349.097ZM1769.81 361.573C1772.33 363.709 1774.82 365.866 1777.28 368.045L1778.61 366.547C1776.13 364.359 1773.63 362.193 1771.11 360.049L1769.81 361.573ZM1784.61 374.652C1787.04 376.886 1789.44 379.14 1791.81 381.414L1793.2 379.969C1790.81 377.686 1788.4 375.423 1785.96 373.18L1784.61 374.652ZM1798.87 388.304C1801.21 390.633 1803.52 392.981 1805.81 395.345L1807.24 393.955C1804.95 391.582 1802.63 389.225 1800.28 386.887L1798.87 388.304ZM1812.59 402.508C1814.84 404.928 1817.05 407.365 1819.24 409.815L1820.73 408.484C1818.54 406.023 1816.31 403.577 1814.06 401.147L1812.59 402.508ZM1825.74 417.242C1827.89 419.751 1830 422.273 1832.09 424.808L1833.63 423.537C1831.54 420.992 1829.41 418.459 1827.25 415.941L1825.74 417.242ZM1838.28 432.489C1840.33 435.084 1842.34 437.69 1844.32 440.306L1845.92 439.1C1843.93 436.472 1841.91 433.855 1839.85 431.25L1838.28 432.489ZM1850.19 448.233C1852.13 450.913 1854.04 453.602 1855.9 456.299L1857.55 455.16C1855.67 452.452 1853.76 449.751 1851.81 447.06L1850.19 448.233ZM1861.42 464.463C1863.25 467.227 1865.04 469.998 1866.78 472.774L1868.48 471.709C1866.72 468.921 1864.93 466.137 1863.09 463.36L1861.42 464.463ZM1871.93 481.166C1873.63 484.015 1875.29 486.868 1876.91 489.723L1878.65 488.738C1877.02 485.87 1875.36 483.003 1873.65 480.14L1871.93 481.166ZM1881.64 498.331C1883.21 501.267 1884.73 504.202 1886.2 507.136L1887.98 506.24C1886.51 503.291 1884.98 500.34 1883.4 497.389L1881.64 498.331ZM1890.48 515.974C1891.9 518.987 1893.26 521.997 1894.56 525.001L1896.4 524.203C1895.08 521.182 1893.72 518.155 1892.29 515.125L1890.48 515.974ZM1898.36 534.087C1899.59 537.166 1900.77 540.236 1901.88 543.297L1903.76 542.611C1902.64 539.531 1901.46 536.441 1900.22 533.343L1898.36 534.087ZM1905.12 552.631C1906.15 555.765 1907.11 558.886 1908.01 561.992L1909.93 561.435C1909.02 558.307 1908.05 555.164 1907.02 552.008L1905.12 552.631ZM1910.59 571.566C1911.39 574.784 1912.12 577.982 1912.77 581.157L1914.73 580.754C1914.07 577.551 1913.34 574.327 1912.53 571.083L1910.59 571.566ZM1914.54 590.821C1915.07 594.115 1915.52 597.38 1915.87 600.614L1917.86 600.393C1917.5 597.126 1917.05 593.829 1916.52 590.505L1914.54 590.821ZM1916.71 610.398C1916.9 613.704 1917 616.973 1917 620.2L1919 620.199C1919 616.932 1918.9 613.625 1918.7 610.281L1916.71 610.398ZM1916.7 630.061C1916.59 631.687 1916.47 633.302 1916.31 634.903L1918.3 635.097C1918.46 633.472 1918.59 631.835 1918.69 630.187L1916.7 630.061Z" fill="#04102A"/>
</svg>
